<?xml version="1.0" encoding="UTF-8" standalone="no" ?>
<!DOCTYPE svg PUBLIC "-//W3C//DTD SVG 1.1//EN" "http://www.w3.org/Graphics/SVG/1.1/DTD/svg11.dtd">
<svg xmlns="http://www.w3.org/2000/svg" xmlns:xlink="http://www.w3.org/1999/xlink" version="1.1" width="500" height="500" viewBox="0 0 500 500" xml:space="preserve">
<desc>Created with Fabric.js 5.2.4</desc>
<defs>
</defs>
<g transform="matrix(1 0 0 1 250 250)" id="88d0e54b-5d43-44fd-a1f7-38ed898b7cae"  >
<rect style="stroke: none; stroke-width: 1; stroke-dasharray: none; stroke-linecap: butt; stroke-dashoffset: 0; stroke-linejoin: miter; stroke-miterlimit: 4; fill: rgb(255,255,255); fill-rule: nonzero; opacity: 1; visibility: hidden;" vector-effect="non-scaling-stroke"  x="-250" y="-250" rx="0" ry="0" width="500" height="500" />
</g>
<g transform="matrix(0 0 0 0 0 0)" id="db66a3c1-ed70-4ae2-894e-30e4c596d327"  >
</g>
<g transform="matrix(0.46 0 0 0.46 249.08 249.04)"  >
<rect style="stroke: none; stroke-width: 1; stroke-dasharray: none; stroke-linecap: butt; stroke-dashoffset: 0; stroke-linejoin: miter; stroke-miterlimit: 4; fill: rgb(255,255,255); fill-rule: nonzero; opacity: 1; visibility: hidden;" vector-effect="non-scaling-stroke"  x="-300" y="-300" rx="0" ry="0" width="600" height="600" />
</g>
<g transform="matrix(-4.8 0 0 4.78 401.32 109.51)"  >
<path style="stroke: none; stroke-width: 1; stroke-dasharray: none; stroke-linecap: butt; stroke-dashoffset: 0; stroke-linejoin: miter; stroke-miterlimit: 4; fill: rgb(38,137,189); fill-rule: nonzero; opacity: 1;" vector-effect="non-scaling-stroke"  transform=" translate(-15.32, -13.63)" d="M 3.799 3.57 C 3.624 3.251 3.74 2.851 4.059 2.679 L 8.828 0.08099999999999996 C 9.145 -0.09400000000000003 9.540999999999999 0.020999999999999963 9.716999999999999 0.344 L 11.628999999999998 3.8329999999999997 C 18.857999999999997 1.666 26.869999999999997 4.747999999999999 30.631999999999998 11.637 L 21.391999999999996 16.682000000000002 C 22.918999999999997 19.476000000000003 21.885999999999996 22.986000000000004 19.086999999999996 24.518 C 16.281999999999996 26.043 12.775999999999996 25.013 11.243999999999996 22.218 L 1.9999999999999964 27.256 C -1.7660000000000036 20.37 -0.035000000000003695 11.966000000000001 5.708999999999996 7.062000000000001 L 3.799 3.57 z" stroke-linecap="round" />
</g>
<g transform="matrix(-4.8 0 0 4.78 99.8 376.67)"  >
<rect style="stroke: none; stroke-width: 1; stroke-dasharray: none; stroke-linecap: butt; stroke-dashoffset: 0; stroke-linejoin: miter; stroke-miterlimit: 4; fill: rgb(38,137,189); fill-rule: nonzero; opacity: 1;" vector-effect="non-scaling-stroke"  x="-15.55" y="-16.075" rx="0" ry="0" width="31.1" height="32.15" />
</g>
<g transform="matrix(-4.8 0 0 4.78 271.17 338.79)"  >
<path style="stroke: none; stroke-width: 1; stroke-dasharray: none; stroke-linecap: butt; stroke-dashoffset: 0; stroke-linejoin: miter; stroke-miterlimit: 4; fill: rgb(38,137,189); fill-rule: nonzero; opacity: 1;" vector-effect="non-scaling-stroke"  transform=" translate(-48.81, -74.55)" d="M 65.336 82.482 L 40.221 82.482 C 35.842 82.482 32.279999999999994 78.92699999999999 32.279999999999994 74.548 C 32.279999999999994 70.161 35.84199999999999 66.613 40.221 66.613 L 65.336 66.613 L 65.336 82.482 z" stroke-linecap="round" />
</g>
<g transform="matrix(-4.8 0 0 4.78 321.89 424.9)"  >
<path style="stroke: none; stroke-width: 1; stroke-dasharray: none; stroke-linecap: butt; stroke-dashoffset: 0; stroke-linejoin: miter; stroke-miterlimit: 4; fill: rgb(38,137,189); fill-rule: nonzero; opacity: 1;" vector-effect="non-scaling-stroke"  transform=" translate(-38.26, -92.13)" d="M 11.187 88.92 C 11.187 87.146 12.625 85.70400000000001 14.399999999999999 85.70400000000001 L 65.33699999999999 85.70400000000001 L 65.33699999999999 98.56 L 11.187 98.56 L 11.187 88.92 z" stroke-linecap="round" />
</g>
<g transform="matrix(-4.8 0 0 4.78 405.22 330.94)"  >
<ellipse style="stroke: none; stroke-width: 1; stroke-dasharray: none; stroke-linecap: butt; stroke-dashoffset: 0; stroke-linejoin: miter; stroke-miterlimit: 4; fill: rgb(38,137,189); fill-rule: nonzero; opacity: 1;" vector-effect="non-scaling-stroke"  cx="0" cy="0" rx="9.594" ry="9.578" />
</g>
</svg>